<?xml version="1.0" encoding="utf-8"?>
<!-- Generator: Adobe Illustrator 26.0.0, SVG Export Plug-In . SVG Version: 6.00 Build 0)  -->
<svg version="1.1" id="图层_1" xmlns="http://www.w3.org/2000/svg" xmlns:xlink="http://www.w3.org/1999/xlink" x="0px" y="0px"
	 viewBox="0 0 40 40" style="enable-background:new 0 0 40 40;" xml:space="preserve">
<style type="text/css">
	.st0{fill:#4E69B0;}
	.st1{fill:none;stroke:#4E69B0;stroke-width:1.1654;stroke-miterlimit:10;}
</style>
<g>
	<g>
		<g>
			<path class="st0" d="M20.39,18.75c-2.19,0-3.96-1.77-3.96-3.96s1.77-3.96,3.96-3.96c2.18,0,3.96,1.77,3.95,3.96
				C24.35,16.98,22.58,18.75,20.39,18.75L20.39,18.75z M22.17,14.8c0-0.98-0.79-1.77-1.77-1.78c-0.98,0-1.77,0.79-1.78,1.77
				c0,0,0,0,0,0c0,0.98,0.8,1.77,1.78,1.77C21.37,16.57,22.17,15.78,22.17,14.8z"/>
			<path class="st0" d="M20.39,22.31c4.28,0,7.76-3.37,7.76-7.53c0-4.16-3.47-7.53-7.76-7.53s-7.76,3.37-7.76,7.53
				C12.64,18.94,16.11,22.31,20.39,22.31z M20.39,20.43c-3.21,0-5.82-2.53-5.82-5.65c0-3.12,2.6-5.65,5.82-5.65s5.82,2.53,5.82,5.65
				C26.21,17.9,23.61,20.43,20.39,20.43z"/>
		</g>
	</g>
	<path class="st1" d="M35.33,24.66H24.17l-0.63-0.86c-0.14-0.19-0.36-0.3-0.59-0.3h-5.12c-0.23,0-0.45,0.11-0.59,0.3l-0.63,0.85
		H5.46v0.01c-0.59,0-1.06,0.47-1.06,1.06v6.25c0,0.59,0.47,1.06,1.06,1.06h29.87c0.59,0,1.06-0.47,1.06-1.06v-6.25
		C36.39,25.13,35.92,24.66,35.33,24.66z M12.84,29.99H9.72C9.3,30,8.96,29.67,8.93,29.25c-0.02-0.42,0.31-0.78,0.73-0.79h3.12
		c0.42-0.02,0.78,0.3,0.79,0.73C13.59,29.61,13.26,29.97,12.84,29.99z M21.98,29.99h-3.12c-0.42,0-0.76-0.34-0.76-0.76
		c0-0.42,0.34-0.76,0.76-0.76h3.05c0.42-0.02,0.78,0.3,0.8,0.73C22.73,29.61,22.4,29.97,21.98,29.99z M31.12,29.99h-3.11
		c-0.42,0.02-0.78-0.31-0.8-0.73c-0.02-0.42,0.31-0.78,0.73-0.79h3.12c0.42-0.02,0.78,0.3,0.79,0.73
		C31.87,29.61,31.54,29.97,31.12,29.99z"/>
</g>
</svg>
