<?xml version="1.0" encoding="utf-8"?>
<!-- Generator: Adobe Illustrator 26.0.0, SVG Export Plug-In . SVG Version: 6.00 Build 0)  -->
<svg version="1.1" id="图层_1" xmlns="http://www.w3.org/2000/svg" xmlns:xlink="http://www.w3.org/1999/xlink" x="0px" y="0px"
	 viewBox="0 0 40 40" style="enable-background:new 0 0 40 40;" xml:space="preserve">
<style type="text/css">
	.st0{fill:none;stroke:#4E69B0;stroke-width:0.9858;stroke-miterlimit:10;}
	.st1{fill:#4E69B0;}
</style>
<g>
	<g>
		<path class="st0" d="M20.39,5.74c-7.22,0-13.07,5.85-13.07,13.07s5.85,13.07,13.07,13.07s13.07-5.85,13.07-13.07
			S27.61,5.74,20.39,5.74z M20.39,9.01c0.77,0,1.4,0.63,1.4,1.4c0,0.77-0.63,1.4-1.4,1.4s-1.4-0.63-1.4-1.4
			C18.99,9.63,19.62,9.01,20.39,9.01z M20.39,25.35c-3.61,0-6.54-2.93-6.54-6.54s2.93-6.54,6.54-6.54s6.54,2.93,6.54,6.54
			S24,25.35,20.39,25.35z"/>
		<path class="st1" d="M25.06,18.81c0,1.25-0.48,2.42-1.37,3.3c-0.88,0.88-2.05,1.37-3.3,1.37c-1.25,0-2.42-0.48-3.3-1.37
			c-0.88-0.88-1.37-2.05-1.37-3.3c0-1.25,0.48-2.42,1.37-3.3c0.88-0.88,2.05-1.37,3.3-1.37c1.25,0,2.42,0.48,3.3,1.37
			C24.58,16.39,25.06,17.56,25.06,18.81z M29.34,31.5c0.55,0.38,0.54,1.2-0.03,1.56c-2.59,1.62-5.64,2.56-8.92,2.56
			s-6.33-0.94-8.92-2.56c-0.57-0.36-0.59-1.18-0.03-1.56c0.31-0.21,0.71-0.22,1.03-0.02c0.67,0.42,1.37,0.79,2.11,1.1
			c1.84,0.78,3.79,1.18,5.81,1.18s3.97-0.39,5.82-1.17c0.74-0.31,1.44-0.68,2.11-1.1C28.63,31.28,29.04,31.29,29.34,31.5L29.34,31.5
			z"/>
	</g>
</g>
</svg>
